<?xml version="1.0" encoding="UTF-8" standalone="no"?>
<svg
   xmlns:dc="http://purl.org/dc/elements/1.1/"
   xmlns:cc="http://creativecommons.org/ns#"
   xmlns:rdf="http://www.w3.org/1999/02/22-rdf-syntax-ns#"
   xmlns:svg="http://www.w3.org/2000/svg"
   xmlns="http://www.w3.org/2000/svg"
   xmlns:sodipodi="http://sodipodi.sourceforge.net/DTD/sodipodi-0.dtd"
   xmlns:inkscape="http://www.inkscape.org/namespaces/inkscape"
   sodipodi:docname="logo.svg"
   inkscape:version="1.0 (4035a4fb49, 2020-05-01)"
   id="svg8"
   version="1.1"
   viewBox="0 0 147.08891 13.338433"
   height="50.412975"
   width="555.92657">
  <defs
     id="defs2">
    <filter
       height="1.000393"
       y="-0.00019651998"
       width="1.0000485"
       x="-2.4267278e-05"
       id="filter942"
       style="color-interpolation-filters:sRGB"
       inkscape:collect="always">
      <feGaussianBlur
         id="feGaussianBlur944"
         stdDeviation="0.00057318146"
         inkscape:collect="always" />
    </filter>
  </defs>
  <sodipodi:namedview
     inkscape:window-maximized="1"
     inkscape:window-y="-6"
     inkscape:window-x="-6"
     inkscape:window-height="658"
     inkscape:window-width="1280"
     units="px"
     lock-margins="true"
     fit-margin-bottom="5"
     fit-margin-right="5"
     fit-margin-left="5"
     fit-margin-top="5"
     showgrid="false"
     inkscape:document-rotation="0"
     inkscape:current-layer="text871"
     inkscape:document-units="mm"
     inkscape:cy="23.189752"
     inkscape:cx="206.47952"
     inkscape:zoom="0.7"
     inkscape:pageshadow="2"
     inkscape:pageopacity="0.0"
     borderopacity="1.0"
     bordercolor="#666666"
     pagecolor="#ffffff"
     id="base" />
  <metadata
     id="metadata5">
    <rdf:RDF>
      <cc:Work
         rdf:about="">
        <dc:format>image/svg+xml</dc:format>
        <dc:type
           rdf:resource="http://purl.org/dc/dcmitype/StillImage" />
        <dc:title></dc:title>
      </cc:Work>
    </rdf:RDF>
  </metadata>
  <g
     transform="translate(-11.417083,-68.29649)"
     id="layer1"
     inkscape:groupmode="layer"
     inkscape:label="Layer 1">
    <g
       transform="matrix(0.3485621,0,0,0.3485621,-8.0523054,38.203758)"
       inkscape:label="Layer 1"
       id="layer1-8"
       style="display:inline">
      <path
         id="path863"
         style="fill:#1c9e68;fill-opacity:1;stroke:none;stroke-width:0.999999px;stroke-linecap:butt;stroke-linejoin:miter;stroke-opacity:1"
         d="M 64.318359,0 C 53.184776,-0.04518775 41.446016,5.9075376 33.138672,20.503906 3.1888753,43.111283 22.442304,79.129688 46.660156,81.333984 l -4.392578,17.25 C 27.782338,99.138706 0.81097323,105.27278 0,108.46875 42.268142,98.583887 84.752079,108.07899 105.6582,112.31055 91.906029,105.85379 76.239201,100.97539 56.777344,99.220703 l 3.080078,-10.9375 C 89.041112,94.284148 113.27645,68.851139 96.269531,37.941406 99.750587,16.808468 82.874332,0.07531292 64.318359,0 Z m 4.953125,21.285156 9.195313,59.765625 -17.302735,-12.8125 -7.693359,30.808594 -7.556641,-0.28125 8.121094,-30.769531 -21.787109,3.283203 z"
         transform="matrix(0.26458333,0,0,0.26458333,59.651653,90.12934)" />
    </g>
    <g
       transform="translate(27.785625,107.60656)"
       id="layer3"
       inkscape:label="Layer 3"
       style="display:inline;opacity:0.994;fill:#000000">
      <g
         style="font-style:normal;font-weight:normal;font-size:10.4665px;line-height:1.25;font-family:sans-serif;letter-spacing:0px;word-spacing:0px;fill:#1c9e68;fill-opacity:1;stroke:none;stroke-width:0.261664;stroke-opacity:1"
         id="text850"
         aria-label="RockFinder3">
        <path
           id="path870"
           style="font-style:normal;font-variant:normal;font-weight:bold;font-stretch:normal;font-family:sans-serif;-inkscape-font-specification:'sans-serif Bold';fill:#1c9e68;fill-opacity:1;stroke:none;stroke-width:0.261664;stroke-opacity:1"
           d="m 2.1409172,-33.967022 q 0,-0.286193 -0.1175437,-0.490617 -0.1175438,-0.204424 -0.4037371,-0.321968 -0.1993133,-0.08177 -0.4650642,-0.0971 -0.26575102,-0.02044 -0.61838214,-0.02044 h -0.71037282 v 2.049349 h 0.60305031 q 0.47017482,0 0.78703175,-0.04599 0.316857,-0.04599 0.531502,-0.209534 0.2044238,-0.158429 0.2964145,-0.347521 0.097101,-0.194203 0.097101,-0.51617 z m 3.0612469,5.279245 H 2.8052946 l -2.0749019,-2.790385 h -0.90457546 v 2.790385 H -2.1264304 v -7.609677 h 3.2912238 q 0.6745986,0 1.1601052,0.07666 0.4855066,0.07666 0.9096861,0.332189 0.42929,0.25553 0.6797092,0.664377 0.2555298,0.403737 0.2555298,1.017009 0,0.843248 -0.3935159,1.37475 -0.3884053,0.531502 -1.1141099,0.884133 z" />
        <path
           id="path872"
           style="font-style:normal;font-variant:normal;font-weight:bold;font-stretch:normal;font-family:sans-serif;-inkscape-font-specification:'sans-serif Bold';fill:#1c9e68;fill-opacity:1;stroke:none;stroke-width:0.261664;stroke-opacity:1"
           d="m 11.835717,-31.554821 q 0,1.415635 -0.827916,2.233331 -0.822806,0.812584 -2.3151004,0.812584 -1.492294,0 -2.3202105,-0.812584 -0.8228059,-0.817696 -0.8228059,-2.233331 0,-1.425856 0.8279165,-2.238441 0.8330271,-0.812585 2.3150999,-0.812585 1.5025154,0 2.3202104,0.817696 0.822806,0.817695 0.822806,2.23333 z m -2.2639939,1.395193 q 0.1788709,-0.219756 0.265751,-0.526392 0.091991,-0.311746 0.091991,-0.85858 0,-0.505949 -0.091991,-0.848359 -0.091991,-0.342409 -0.2555298,-0.546833 -0.1635391,-0.209535 -0.3935159,-0.296415 -0.2299768,-0.08688 -0.4957278,-0.08688 -0.265751,0 -0.4752854,0.07155 -0.2044238,0.07155 -0.3935159,0.286194 -0.1686496,0.199313 -0.2708616,0.546833 -0.097101,0.347521 -0.097101,0.873912 0,0.470175 0.08688,0.817696 0.08688,0.34241 0.2555297,0.551944 0.1635391,0.199313 0.3884053,0.291304 0.2299768,0.09199 0.5212808,0.09199 0.2504192,0 0.4752854,-0.08177 0.2299768,-0.08688 0.3884053,-0.286193 z" />
        <path
           id="path874"
           style="font-style:normal;font-variant:normal;font-weight:bold;font-stretch:normal;font-family:sans-serif;-inkscape-font-specification:'sans-serif Bold';fill:#1c9e68;fill-opacity:1;stroke:none;stroke-width:0.261664;stroke-opacity:1"
           d="m 16.15417,-28.534459 q -0.751257,0 -1.37475,-0.178871 -0.618382,-0.17887 -1.078336,-0.551944 -0.454843,-0.373073 -0.705262,-0.94035 -0.250419,-0.567276 -0.250419,-1.328754 0,-0.802364 0.265751,-1.384972 0.270862,-0.582608 0.751258,-0.965903 0.465064,-0.362852 1.073225,-0.531502 0.608161,-0.168649 1.262317,-0.168649 0.587718,0 1.083446,0.127765 0.495728,0.127765 0.925018,0.332188 v 1.568953 h -0.26064 q -0.107323,-0.09199 -0.260641,-0.214645 -0.148207,-0.122654 -0.367963,-0.240198 -0.209534,-0.112433 -0.459953,-0.183981 -0.25042,-0.07666 -0.582608,-0.07666 -0.735926,0 -1.134553,0.470175 -0.393515,0.465064 -0.393515,1.267428 0,0.827916 0.403737,1.257206 0.408847,0.42929 1.154994,0.42929 0.347521,0 0.623493,-0.07666 0.281083,-0.08177 0.465064,-0.189092 0.173761,-0.102212 0.306636,-0.214645 0.132875,-0.112433 0.245309,-0.219755 h 0.26064 v 1.568952 q -0.434401,0.204424 -0.909686,0.321968 -0.470175,0.122654 -1.042562,0.122654 z" />
        <path
           id="path876"
           style="font-style:normal;font-variant:normal;font-weight:bold;font-stretch:normal;font-family:sans-serif;-inkscape-font-specification:'sans-serif Bold';fill:#1c9e68;fill-opacity:1;stroke:none;stroke-width:0.261664;stroke-opacity:1"
           d="m 25.40946,-28.687777 h -2.141339 l -1.609838,-2.499081 -0.500839,0.608161 v 1.89092 H 19.31763 v -7.952087 h 1.839814 v 4.747744 l 1.982912,-2.534856 h 2.120897 l -2.064681,2.473529 z" />
        <path
           id="path878"
           style="font-style:normal;font-variant:normal;font-weight:bold;font-stretch:normal;font-family:sans-serif;-inkscape-font-specification:'sans-serif Bold';fill:#1c9e68;fill-opacity:1;stroke:none;stroke-width:0.261664;stroke-opacity:1"
           d="m 31.905027,-34.825602 h -3.500759 v 1.415635 h 3.245229 v 1.471851 h -3.245229 v 3.250339 h -1.952247 v -7.609677 h 5.453006 z" />
        <path
           id="path880"
           style="font-style:normal;font-variant:normal;font-weight:bold;font-stretch:normal;font-family:sans-serif;-inkscape-font-specification:'sans-serif Bold';fill:#1c9e68;fill-opacity:1;stroke:none;stroke-width:0.261664;stroke-opacity:1"
           d="m 34.996937,-28.687777 h -1.839814 v -5.739199 h 1.839814 z m 0.05111,-6.556894 h -1.942026 v -1.395193 h 1.942026 z" />
        <path
           id="path882"
           style="font-style:normal;font-variant:normal;font-weight:bold;font-stretch:normal;font-family:sans-serif;-inkscape-font-specification:'sans-serif Bold';fill:#1c9e68;fill-opacity:1;stroke:none;stroke-width:0.261664;stroke-opacity:1"
           d="m 42.49929,-28.687777 h -1.850035 v -2.846601 q 0,-0.347521 -0.03577,-0.689931 -0.03577,-0.34752 -0.122654,-0.511059 -0.102212,-0.189093 -0.301525,-0.275973 -0.194203,-0.08688 -0.546834,-0.08688 -0.250419,0 -0.511059,0.08177 -0.25553,0.08177 -0.557055,0.26064 v 4.068034 h -1.839815 v -5.739199 h 1.839815 v 0.633714 q 0.490617,-0.383294 0.940349,-0.587718 0.454843,-0.204424 1.006788,-0.204424 0.930128,0 1.451409,0.541723 0.526391,0.541723 0.526391,1.620059 z" />
        <path
           id="path884"
           style="font-style:normal;font-variant:normal;font-weight:bold;font-stretch:normal;font-family:sans-serif;-inkscape-font-specification:'sans-serif Bold';fill:#1c9e68;fill-opacity:1;stroke:none;stroke-width:0.261664;stroke-opacity:1"
           d="m 49.77678,-28.687777 h -1.839814 v -0.597939 q -0.475285,0.388405 -0.889244,0.572386 -0.413958,0.183982 -0.955681,0.183982 -1.047672,0 -1.676276,-0.807474 -0.628603,-0.807474 -0.628603,-2.177114 0,-0.730815 0.209535,-1.292981 0.214645,-0.567276 0.582608,-0.971013 0.34752,-0.383295 0.843248,-0.592829 0.495728,-0.214645 0.991455,-0.214645 0.516171,0 0.843249,0.112433 0.332188,0.107322 0.679709,0.275972 v -2.442865 h 1.839814 z m -1.839814,-1.584284 V -33.088 q -0.194203,-0.08177 -0.408848,-0.117543 -0.214645,-0.03577 -0.393516,-0.03577 -0.725704,0 -1.088556,0.454843 -0.362853,0.449732 -0.362853,1.252096 0,0.843248 0.291304,1.226543 0.291304,0.378184 0.935239,0.378184 0.250419,0 0.531502,-0.09199 0.281083,-0.0971 0.495728,-0.250419 z" />
        <path
           id="path886"
           style="font-style:normal;font-variant:normal;font-weight:bold;font-stretch:normal;font-family:sans-serif;-inkscape-font-specification:'sans-serif Bold';fill:#1c9e68;fill-opacity:1;stroke:none;stroke-width:0.261664;stroke-opacity:1"
           d="m 57.166703,-31.217522 h -4.211131 q 0.04089,0.674599 0.51106,1.032341 0.475285,0.357742 1.395193,0.357742 0.582608,0 1.129441,-0.209535 0.546834,-0.209534 0.863691,-0.449732 h 0.204424 v 1.476962 q -0.623493,0.250419 -1.175437,0.362852 -0.551944,0.112433 -1.221433,0.112433 -1.727381,0 -2.647288,-0.77681 -0.919907,-0.776811 -0.919907,-2.212888 0,-1.420746 0.868801,-2.248662 0.873912,-0.833028 2.391759,-0.833028 1.400303,0 2.105565,0.710373 0.705262,0.705262 0.705262,2.034017 z m -1.829593,-1.078335 q -0.01533,-0.577498 -0.286193,-0.868802 -0.270862,-0.291303 -0.843249,-0.291303 -0.531502,0 -0.873911,0.275972 -0.34241,0.275972 -0.383295,0.884133 z" />
        <path
           id="path888"
           style="font-style:normal;font-variant:normal;font-weight:bold;font-stretch:normal;font-family:sans-serif;-inkscape-font-specification:'sans-serif Bold';fill:#1c9e68;fill-opacity:1;stroke:none;stroke-width:0.261664;stroke-opacity:1"
           d="m 62.624818,-32.674041 h -0.163539 q -0.117543,-0.04088 -0.378184,-0.06133 -0.26064,-0.02044 -0.4344,-0.02044 -0.393516,0 -0.695041,0.05111 -0.301526,0.05111 -0.649046,0.17376 v 3.843168 h -1.839815 v -5.739199 h 1.839815 v 0.843249 q 0.608161,-0.521281 1.057893,-0.689931 0.449733,-0.17376 0.827917,-0.17376 0.0971,0 0.219755,0.0051 0.122655,0.0051 0.214645,0.01533 z" />
        <path
           id="path890"
           style="font-style:normal;font-variant:normal;font-weight:bold;font-stretch:normal;font-family:sans-serif;-inkscape-font-specification:'sans-serif Bold';fill:#1c9e68;fill-opacity:1;stroke:none;stroke-width:0.261664;stroke-opacity:1"
           d="m 68.982399,-32.254972 q 0.250419,0.214645 0.398626,0.500838 0.148207,0.286193 0.148207,0.761479 0,0.536612 -0.214645,1.001676 -0.209534,0.465065 -0.649045,0.797253 -0.42929,0.321968 -1.011898,0.495728 -0.577498,0.16865 -1.405414,0.16865 -0.94546,0 -1.62517,-0.148207 -0.674598,-0.148208 -1.098778,-0.332189 v -1.671165 h 0.199313 q 0.439512,0.265751 1.047673,0.459954 0.613271,0.194202 1.11922,0.194202 0.296415,0 0.643935,-0.046 0.347521,-0.05111 0.587719,-0.214645 0.189092,-0.127765 0.301525,-0.306636 0.112433,-0.183981 0.112433,-0.526391 0,-0.332189 -0.153318,-0.51106 -0.153318,-0.183981 -0.403737,-0.26064 -0.250419,-0.08177 -0.60305,-0.08688 -0.352631,-0.01022 -0.654157,-0.01022 H 65.30277 v -1.359419 h 0.4344 q 0.398627,0 0.705262,-0.02555 0.306636,-0.02555 0.521281,-0.117544 0.224866,-0.0971 0.3373,-0.255529 0.112433,-0.16354 0.112433,-0.475286 0,-0.229977 -0.117544,-0.367963 -0.117544,-0.143096 -0.296415,-0.224866 -0.199313,-0.09199 -0.470174,-0.122654 -0.270862,-0.03066 -0.465065,-0.03066 -0.480396,0 -1.042561,0.16865 -0.562166,0.163539 -1.088557,0.475285 h -0.189092 v -1.650722 q 0.419069,-0.16865 1.139663,-0.321968 0.720594,-0.158428 1.46163,-0.158428 0.720594,0 1.262317,0.127765 0.541723,0.122654 0.894355,0.332188 0.419068,0.25042 0.623492,0.608161 0.204424,0.357742 0.204424,0.838138 0,0.633714 -0.393516,1.134552 -0.393516,0.495728 -1.037451,0.633714 v 0.07155 q 0.260641,0.03577 0.551945,0.143096 0.291304,0.107323 0.531502,0.311747 z" />
      </g>
      <g
         style="font-style:normal;font-weight:normal;font-size:7.26139px;line-height:1.25;font-family:sans-serif;letter-spacing:0px;word-spacing:0px;fill:#000000;fill-opacity:1;stroke:none;stroke-width:0.181535;stroke-opacity:1;filter:url(#filter942)"
         id="text871"
         aria-label="by baumrock.com">
        <path
           id="path893"
           style="font-style:normal;font-variant:normal;font-weight:normal;font-stretch:normal;font-family:ubuntu;-inkscape-font-specification:ubuntu;fill:#000000;fill-opacity:1;stroke:none;stroke-width:0.181535;stroke-opacity:1"
           d="m 73.385898,-32.268603 q 0.123444,-0.07988 0.370331,-0.167012 0.254149,-0.08714 0.580911,-0.08714 0.406638,0 0.718878,0.145228 0.319501,0.145227 0.537343,0.406637 0.217841,0.26141 0.326762,0.62448 0.116182,0.363069 0.116182,0.798753 0,0.457467 -0.137966,0.827798 -0.130705,0.36307 -0.377592,0.617219 -0.246888,0.254148 -0.595434,0.392115 -0.348547,0.137966 -0.78423,0.137966 -0.471991,0 -0.83506,-0.06535 -0.36307,-0.06535 -0.595434,-0.130706 v -5.409735 l 0.675309,-0.116182 z m 0,3.020739 q 0.101659,0.02904 0.283194,0.05809 0.188796,0.02178 0.464729,0.02178 0.544604,0 0.871367,-0.355808 0.326763,-0.36307 0.326763,-1.023856 0,-0.290456 -0.05809,-0.544604 -0.05809,-0.254149 -0.188796,-0.435684 -0.130705,-0.188796 -0.341285,-0.290455 -0.203319,-0.108921 -0.493775,-0.108921 -0.275932,0 -0.508297,0.0944 -0.232364,0.0944 -0.355808,0.196057 z" />
        <path
           id="path895"
           style="font-style:normal;font-variant:normal;font-weight:normal;font-stretch:normal;font-family:ubuntu;-inkscape-font-specification:ubuntu;fill:#000000;fill-opacity:1;stroke:none;stroke-width:0.181535;stroke-opacity:1"
           d="m 76.451453,-27.955337 q 0.07988,0.03631 0.203319,0.06535 0.130705,0.03631 0.254148,0.03631 0.399377,0 0.62448,-0.181535 0.225103,-0.174273 0.406638,-0.57365 -0.457468,-0.871367 -0.856844,-1.844393 -0.392115,-0.980288 -0.653525,-1.98236 h 0.726139 q 0.07988,0.326763 0.188796,0.704355 0.116182,0.377593 0.254148,0.776969 0.137967,0.399376 0.297717,0.798753 0.159751,0.399376 0.334024,0.769707 0.275933,-0.762446 0.479252,-1.510369 0.203319,-0.747923 0.384854,-1.539415 h 0.697093 q -0.26141,1.067425 -0.580911,2.054974 -0.319501,0.980288 -0.689832,1.837132 -0.145228,0.326762 -0.304978,0.559127 -0.15249,0.239626 -0.341286,0.392115 -0.188796,0.152489 -0.428422,0.225103 -0.232364,0.07261 -0.530081,0.07261 -0.07988,0 -0.167012,-0.01452 -0.08714,-0.0073 -0.174274,-0.02905 -0.07988,-0.01452 -0.152489,-0.03631 -0.06535,-0.02178 -0.0944,-0.03631 z" />
        <path
           id="path897"
           style="font-style:normal;font-variant:normal;font-weight:normal;font-stretch:normal;font-family:ubuntu;-inkscape-font-specification:ubuntu;fill:#000000;fill-opacity:1;stroke:none;stroke-width:0.181535;stroke-opacity:1"
           d="m 82.84556,-32.268603 q 0.123444,-0.07988 0.370331,-0.167012 0.254149,-0.08714 0.580912,-0.08714 0.406637,0 0.718877,0.145228 0.319501,0.145227 0.537343,0.406637 0.217842,0.26141 0.326763,0.62448 0.116182,0.363069 0.116182,0.798753 0,0.457467 -0.137967,0.827798 -0.130705,0.36307 -0.377592,0.617219 -0.246887,0.254148 -0.595434,0.392115 -0.348547,0.137966 -0.78423,0.137966 -0.47199,0 -0.83506,-0.06535 -0.363069,-0.06535 -0.595434,-0.130706 v -5.409735 l 0.675309,-0.116182 z m 0,3.020739 q 0.10166,0.02904 0.283195,0.05809 0.188796,0.02178 0.464729,0.02178 0.544604,0 0.871366,-0.355808 0.326763,-0.36307 0.326763,-1.023856 0,-0.290456 -0.05809,-0.544604 -0.05809,-0.254149 -0.188796,-0.435684 -0.130705,-0.188796 -0.341286,-0.290455 -0.203319,-0.108921 -0.493774,-0.108921 -0.275933,0 -0.508297,0.0944 -0.232365,0.0944 -0.355809,0.196057 z" />
        <path
           id="path899"
           style="font-style:normal;font-variant:normal;font-weight:normal;font-stretch:normal;font-family:ubuntu;-inkscape-font-specification:ubuntu;fill:#000000;fill-opacity:1;stroke:none;stroke-width:0.181535;stroke-opacity:1"
           d="m 87.731342,-29.146205 q 0.239626,0 0.42116,-0.0073 0.188796,-0.01452 0.31224,-0.04357 v -1.125515 q -0.07261,-0.03631 -0.239626,-0.05809 -0.15975,-0.02905 -0.392115,-0.02905 -0.152489,0 -0.326762,0.02178 -0.167012,0.02178 -0.31224,0.0944 -0.137967,0.06535 -0.232365,0.188796 -0.0944,0.116182 -0.0944,0.312239 0,0.36307 0.232365,0.508298 0.232364,0.137966 0.631741,0.137966 z m -0.05809,-3.383808 q 0.406637,0 0.68257,0.108921 0.283194,0.10166 0.450206,0.297717 0.174274,0.188796 0.246888,0.457468 0.07261,0.26141 0.07261,0.580911 v 2.359952 q -0.08714,0.01452 -0.246888,0.04357 -0.152489,0.02178 -0.348546,0.04357 -0.196058,0.02178 -0.428422,0.03631 -0.225104,0.02179 -0.450207,0.02179 -0.319501,0 -0.588172,-0.06535 -0.268672,-0.06535 -0.464729,-0.203319 -0.196058,-0.145228 -0.304979,-0.377592 -0.10892,-0.232365 -0.10892,-0.559127 0,-0.31224 0.123443,-0.537343 0.130705,-0.225103 0.348547,-0.36307 0.217842,-0.137966 0.508297,-0.203318 0.290456,-0.06535 0.609957,-0.06535 0.101659,0 0.21058,0.01452 0.108921,0.0073 0.203319,0.02904 0.10166,0.01452 0.174274,0.02905 0.07261,0.01452 0.101659,0.02178 v -0.188796 q 0,-0.167012 -0.03631,-0.326763 -0.03631,-0.167012 -0.130705,-0.290455 -0.0944,-0.130705 -0.26141,-0.203319 -0.159751,-0.07988 -0.421161,-0.07988 -0.334024,0 -0.588172,0.05083 -0.246887,0.04357 -0.370331,0.0944 l -0.07987,-0.559127 q 0.130705,-0.05809 0.435683,-0.108921 0.304978,-0.05809 0.660787,-0.05809 z" />
        <path
           id="path901"
           style="font-style:normal;font-variant:normal;font-weight:normal;font-stretch:normal;font-family:ubuntu;-inkscape-font-specification:ubuntu;fill:#000000;fill-opacity:1;stroke:none;stroke-width:0.181535;stroke-opacity:1"
           d="m 93.246254,-28.768613 q -0.232365,0.05809 -0.617218,0.123444 -0.377593,0.06535 -0.878629,0.06535 -0.435683,0 -0.7334,-0.123444 -0.297717,-0.130705 -0.479252,-0.36307 -0.181535,-0.232364 -0.26141,-0.544604 -0.07988,-0.319501 -0.07988,-0.704355 v -2.120326 h 0.675309 v 1.975099 q 0,0.689832 0.217842,0.987549 0.217842,0.297717 0.7334,0.297717 0.108921,0 0.225103,-0.0073 0.116183,-0.0073 0.217842,-0.01452 0.101659,-0.01452 0.181535,-0.02178 0.08714,-0.01452 0.123443,-0.02904 v -3.187751 h 0.67531 z" />
        <path
           id="path903"
           style="font-style:normal;font-variant:normal;font-weight:normal;font-stretch:normal;font-family:ubuntu;-inkscape-font-specification:ubuntu;fill:#000000;fill-opacity:1;stroke:none;stroke-width:0.181535;stroke-opacity:1"
           d="m 94.409664,-32.326694 q 0.232365,-0.05809 0.609957,-0.123443 0.384854,-0.06535 0.88589,-0.06535 0.363069,0 0.609957,0.10166 0.246887,0.0944 0.413899,0.283194 0.05083,-0.03631 0.15975,-0.10166 0.108921,-0.06535 0.268672,-0.123443 0.15975,-0.06535 0.355808,-0.108921 0.196057,-0.05083 0.421161,-0.05083 0.435683,0 0.711616,0.130705 0.275933,0.123444 0.428422,0.355808 0.15975,0.232365 0.21058,0.551866 0.05809,0.319501 0.05809,0.697093 v 2.120326 h -0.675309 v -1.975098 q 0,-0.334024 -0.03631,-0.57365 -0.02905,-0.239626 -0.123444,-0.399376 -0.08714,-0.159751 -0.246887,-0.232365 -0.152489,-0.07988 -0.399376,-0.07988 -0.341286,0 -0.566389,0.0944 -0.217841,0.08714 -0.297717,0.159751 0.05809,0.188796 0.08714,0.413899 0.02904,0.225103 0.02904,0.47199 v 2.120326 h -0.675309 v -1.975098 q 0,-0.334024 -0.03631,-0.57365 -0.03631,-0.239626 -0.130705,-0.399376 -0.08714,-0.159751 -0.246887,-0.232365 -0.152489,-0.07988 -0.392115,-0.07988 -0.10166,0 -0.217842,0.0073 -0.116182,0.0073 -0.225103,0.02178 -0.101659,0.0073 -0.188796,0.02178 -0.08714,0.01452 -0.116182,0.02178 v 3.18775 h -0.67531 z" />
        <path
           id="path905"
           style="font-style:normal;font-variant:normal;font-weight:normal;font-stretch:normal;font-family:ubuntu;-inkscape-font-specification:ubuntu;fill:#000000;fill-opacity:1;stroke:none;stroke-width:0.181535;stroke-opacity:1"
           d="m 102.05829,-32.51549 q 0.0871,0 0.19606,0.01452 0.11618,0.0073 0.2251,0.02904 0.10892,0.01452 0.19606,0.03631 0.0944,0.01452 0.13797,0.02905 l -0.11619,0.588173 q -0.0799,-0.02905 -0.26867,-0.06535 -0.18153,-0.04357 -0.47199,-0.04357 -0.18879,0 -0.37759,0.04357 -0.18153,0.03631 -0.23963,0.05083 v 3.173227 h -0.6753 v -3.616174 q 0.23962,-0.08714 0.59543,-0.159751 0.35581,-0.07988 0.79875,-0.07988 z" />
        <path
           id="path907"
           style="font-style:normal;font-variant:normal;font-weight:normal;font-stretch:normal;font-family:ubuntu;-inkscape-font-specification:ubuntu;fill:#000000;fill-opacity:1;stroke:none;stroke-width:0.181535;stroke-opacity:1"
           d="m 106.8052,-30.547653 q 0,0.450206 -0.13071,0.813276 -0.1307,0.363069 -0.37033,0.624479 -0.23236,0.26141 -0.55912,0.406638 -0.32677,0.137966 -0.71162,0.137966 -0.38485,0 -0.71162,-0.137966 -0.32676,-0.145228 -0.56639,-0.406638 -0.23236,-0.26141 -0.36307,-0.624479 -0.1307,-0.36307 -0.1307,-0.813276 0,-0.442945 0.1307,-0.806014 0.13071,-0.370331 0.36307,-0.631741 0.23963,-0.26141 0.56639,-0.399377 0.32677,-0.145228 0.71162,-0.145228 0.38485,0 0.71162,0.145228 0.32676,0.137967 0.55912,0.399377 0.23963,0.26141 0.37033,0.631741 0.13071,0.363069 0.13071,0.806014 z m -0.70436,0 q 0,-0.639002 -0.29045,-1.009333 -0.2832,-0.377593 -0.77697,-0.377593 -0.49378,0 -0.78423,0.377593 -0.2832,0.370331 -0.2832,1.009333 0,0.639002 0.2832,1.016595 0.29045,0.37033 0.78423,0.37033 0.49377,0 0.77697,-0.37033 0.29045,-0.377593 0.29045,-1.016595 z" />
        <path
           id="path909"
           style="font-style:normal;font-variant:normal;font-weight:normal;font-stretch:normal;font-family:ubuntu;-inkscape-font-specification:ubuntu;fill:#000000;fill-opacity:1;stroke:none;stroke-width:0.181535;stroke-opacity:1"
           d="m 109.39638,-28.572555 q -0.45747,0 -0.80602,-0.145228 -0.34128,-0.145228 -0.58091,-0.406638 -0.23236,-0.26141 -0.34854,-0.617218 -0.11619,-0.363069 -0.11619,-0.798753 0,-0.435683 0.12345,-0.798753 0.1307,-0.363069 0.36307,-0.624479 0.23236,-0.268672 0.56639,-0.413899 0.34128,-0.15249 0.75518,-0.15249 0.25415,0 0.5083,0.04357 0.25415,0.04357 0.48651,0.137966 l -0.15249,0.57365 q -0.15249,-0.07261 -0.35581,-0.116182 -0.19605,-0.04357 -0.42116,-0.04357 -0.56638,0 -0.87136,0.355808 -0.29772,0.355809 -0.29772,1.038379 0,0.304979 0.0653,0.559127 0.0726,0.254149 0.21784,0.435684 0.15249,0.181534 0.38485,0.283194 0.23237,0.0944 0.56639,0.0944 0.26867,0 0.48652,-0.05083 0.21784,-0.05083 0.34128,-0.108921 l 0.0944,0.566389 q -0.0581,0.03631 -0.16701,0.07261 -0.10892,0.02904 -0.24689,0.05083 -0.13796,0.02904 -0.29771,0.04357 -0.15249,0.02178 -0.29772,0.02178 z" />
        <path
           id="path911"
           style="font-style:normal;font-variant:normal;font-weight:normal;font-stretch:normal;font-family:ubuntu;-inkscape-font-specification:ubuntu;fill:#000000;fill-opacity:1;stroke:none;stroke-width:0.181535;stroke-opacity:1"
           d="m 112.49586,-30.736449 q 0.21784,0.167012 0.45747,0.413899 0.24688,0.246887 0.47925,0.537343 0.23962,0.283194 0.4502,0.580911 0.21058,0.290456 0.35581,0.544604 h -0.79149 q -0.15249,-0.254148 -0.35581,-0.515558 -0.19606,-0.268672 -0.4139,-0.508298 -0.21784,-0.246887 -0.44294,-0.450206 -0.2251,-0.203319 -0.42842,-0.341285 v 1.815347 h -0.67531 v -5.518656 l 0.67531,-0.116182 v 3.441898 q 0.17427,-0.174273 0.38485,-0.384853 0.21058,-0.210581 0.4139,-0.428422 0.20332,-0.217842 0.38485,-0.413899 0.18154,-0.203319 0.31224,-0.355809 h 0.79149 q -0.16701,0.181535 -0.36307,0.399377 -0.19605,0.217842 -0.40663,0.442945 -0.21058,0.217841 -0.42843,0.442944 -0.21058,0.217842 -0.39937,0.4139 z" />
        <path
           id="path913"
           style="font-style:normal;font-variant:normal;font-weight:normal;font-stretch:normal;font-family:ubuntu;-inkscape-font-specification:ubuntu;fill:#000000;fill-opacity:1;stroke:none;stroke-width:0.181535;stroke-opacity:1"
           d="m 115.71617,-29.051807 q 0,0.196058 -0.1307,0.341286 -0.13071,0.145227 -0.35581,0.145227 -0.22511,0 -0.35581,-0.145227 -0.13071,-0.145228 -0.13071,-0.341286 0,-0.196057 0.13071,-0.341285 0.1307,-0.145228 0.35581,-0.145228 0.2251,0 0.35581,0.145228 0.1307,0.145228 0.1307,0.341285 z" />
        <path
           id="path915"
           style="font-style:normal;font-variant:normal;font-weight:normal;font-stretch:normal;font-family:ubuntu;-inkscape-font-specification:ubuntu;fill:#000000;fill-opacity:1;stroke:none;stroke-width:0.181535;stroke-opacity:1"
           d="m 118.34548,-28.572555 q -0.45747,0 -0.80602,-0.145228 -0.34128,-0.145228 -0.58091,-0.406638 -0.23236,-0.26141 -0.34855,-0.617218 -0.11618,-0.363069 -0.11618,-0.798753 0,-0.435683 0.12345,-0.798753 0.1307,-0.363069 0.36306,-0.624479 0.23237,-0.268672 0.56639,-0.413899 0.34129,-0.15249 0.75519,-0.15249 0.25415,0 0.50829,0.04357 0.25415,0.04357 0.48652,0.137966 l -0.15249,0.57365 q -0.15249,-0.07261 -0.35581,-0.116182 -0.19606,-0.04357 -0.42116,-0.04357 -0.56639,0 -0.87137,0.355808 -0.29771,0.355809 -0.29771,1.038379 0,0.304979 0.0654,0.559127 0.0726,0.254149 0.21784,0.435684 0.15249,0.181534 0.38485,0.283194 0.23237,0.0944 0.56639,0.0944 0.26867,0 0.48651,-0.05083 0.21785,-0.05083 0.34129,-0.108921 l 0.0944,0.566389 q -0.0581,0.03631 -0.16701,0.07261 -0.10892,0.02904 -0.24689,0.05083 -0.13797,0.02904 -0.29772,0.04357 -0.15249,0.02178 -0.29771,0.02178 z" />
        <path
           id="path917"
           style="font-style:normal;font-variant:normal;font-weight:normal;font-stretch:normal;font-family:ubuntu;-inkscape-font-specification:ubuntu;fill:#000000;fill-opacity:1;stroke:none;stroke-width:0.181535;stroke-opacity:1"
           d="m 123.31351,-30.547653 q 0,0.450206 -0.1307,0.813276 -0.13071,0.363069 -0.37033,0.624479 -0.23237,0.26141 -0.55913,0.406638 -0.32676,0.137966 -0.71161,0.137966 -0.38486,0 -0.71162,-0.137966 -0.32676,-0.145228 -0.56639,-0.406638 -0.23236,-0.26141 -0.36307,-0.624479 -0.1307,-0.36307 -0.1307,-0.813276 0,-0.442945 0.1307,-0.806014 0.13071,-0.370331 0.36307,-0.631741 0.23963,-0.26141 0.56639,-0.399377 0.32676,-0.145228 0.71162,-0.145228 0.38485,0 0.71161,0.145228 0.32676,0.137967 0.55913,0.399377 0.23962,0.26141 0.37033,0.631741 0.1307,0.363069 0.1307,0.806014 z m -0.70435,0 q 0,-0.639002 -0.29046,-1.009333 -0.28319,-0.377593 -0.77696,-0.377593 -0.49378,0 -0.78423,0.377593 -0.2832,0.370331 -0.2832,1.009333 0,0.639002 0.2832,1.016595 0.29045,0.37033 0.78423,0.37033 0.49377,0 0.77696,-0.37033 0.29046,-0.377593 0.29046,-1.016595 z" />
        <path
           id="path919"
           style="font-style:normal;font-variant:normal;font-weight:normal;font-stretch:normal;font-family:ubuntu;-inkscape-font-specification:ubuntu;fill:#000000;fill-opacity:1;stroke:none;stroke-width:0.181535;stroke-opacity:1"
           d="m 124.26362,-32.326694 q 0.23237,-0.05809 0.60996,-0.123443 0.38486,-0.06535 0.88589,-0.06535 0.36307,0 0.60996,0.10166 0.24689,0.0944 0.4139,0.283194 0.0508,-0.03631 0.15975,-0.10166 0.10892,-0.06535 0.26867,-0.123443 0.15975,-0.06535 0.35581,-0.108921 0.19606,-0.05083 0.42116,-0.05083 0.43568,0 0.71161,0.130705 0.27594,0.123444 0.42843,0.355808 0.15975,0.232365 0.21058,0.551866 0.0581,0.319501 0.0581,0.697093 v 2.120326 h -0.67531 v -1.975098 q 0,-0.334024 -0.0363,-0.57365 -0.029,-0.239626 -0.12345,-0.399376 -0.0871,-0.159751 -0.24688,-0.232365 -0.15249,-0.07988 -0.39938,-0.07988 -0.34129,0 -0.56639,0.0944 -0.21784,0.08714 -0.29772,0.159751 0.0581,0.188796 0.0871,0.413899 0.0291,0.225103 0.0291,0.47199 v 2.120326 h -0.67531 v -1.975098 q 0,-0.334024 -0.0363,-0.57365 -0.0363,-0.239626 -0.1307,-0.399376 -0.0871,-0.159751 -0.24689,-0.232365 -0.15249,-0.07988 -0.39211,-0.07988 -0.10166,0 -0.21784,0.0073 -0.11619,0.0073 -0.22511,0.02178 -0.10166,0.0073 -0.18879,0.02178 -0.0871,0.01452 -0.11619,0.02178 v 3.18775 h -0.67531 z" />
      </g>
    </g>
  </g>
</svg>
